<svg width="1203" height="269" viewBox="0 0 1203 269" fill="none" xmlns="http://www.w3.org/2000/svg">
<rect width="1203" height="268.166" rx="60" fill="#040C4A"/>
<rect x="40" y="40" width="243" height="188.166" rx="30" fill="#FF5E5C"/>
<path d="M243.668 118.299V93.903C243.668 92.7975 242.77 91.9004 241.663 91.9004C240.556 91.9004 239.658 92.7975 239.658 93.903V118.339C239.526 118.375 239.389 118.415 239.257 118.455C230.531 90.6147 199.006 70 161.458 70C123.91 70 92.4013 90.6027 83.667 118.431C83.5306 118.391 83.3943 118.351 83.2579 118.319V93.903C83.2579 92.7975 82.3596 91.9004 81.2528 91.9004C80.1459 91.9004 79.2477 92.7975 79.2477 93.903V118.319C73.9902 119.66 70 126.209 70 134.083C70 142.93 75.0369 150.104 81.2528 150.104C82.0829 150.104 82.889 149.976 83.667 149.735C92.4013 177.563 123.918 198.166 161.458 198.166C198.998 198.166 230.531 177.551 239.257 149.711C240.059 149.968 240.893 150.104 241.747 150.104C247.963 150.104 253 142.93 253 134.083C253 126.169 248.97 119.592 243.668 118.299ZM161.458 180.711C123.834 180.711 93.3357 159.836 93.3357 134.083C93.3357 108.33 123.834 87.4546 161.458 87.4546C199.082 87.4546 229.576 108.33 229.576 134.083C229.576 159.836 199.078 180.711 161.458 180.711Z" fill="#273AC8"/>
<path d="M126.168 161.991C137.242 161.991 146.219 149.439 146.219 133.955C146.219 118.471 137.242 105.919 126.168 105.919C115.094 105.919 106.116 118.471 106.116 133.955C106.116 149.439 115.094 161.991 126.168 161.991Z" fill="#273AC8"/>
<path d="M196.748 161.991C207.822 161.991 216.799 149.439 216.799 133.955C216.799 118.471 207.822 105.919 196.748 105.919C185.674 105.919 176.697 118.471 176.697 133.955C176.697 149.439 185.674 161.991 196.748 161.991Z" fill="#273AC8"/>
<path d="M437.189 156.347C437.189 166.454 433.43 174.193 425.91 179.564C418.439 184.887 407.453 187.548 392.951 187.548C366.828 187.548 351.618 178.1 347.321 159.203L368.195 155.761C369.611 161.23 372.37 165.209 376.472 167.699C380.573 170.141 386.262 171.361 393.537 171.361C401.105 171.361 406.77 170.214 410.529 167.919C414.289 165.624 416.169 162.182 416.169 157.592C416.169 154.662 415.314 152.245 413.605 150.341C411.896 148.437 409.455 146.85 406.281 145.58C404.719 144.945 402.424 144.262 399.396 143.529C396.369 142.748 392.609 141.894 388.117 140.966C382.941 139.745 378.889 138.72 375.959 137.89C373.029 137.011 370.686 136.181 368.928 135.399C367.17 134.569 365.461 133.666 363.801 132.689C360.139 130.492 357.282 127.563 355.231 123.9C353.181 120.238 352.155 115.673 352.155 110.204C352.155 100.878 355.646 93.7491 362.629 88.8174C369.66 83.8369 379.865 81.3467 393.244 81.3467C406.037 81.3467 415.632 83.3487 422.028 87.3526C428.474 91.3565 432.624 97.9727 434.479 107.201L413.532 110.058C412.458 105.614 410.261 102.27 406.94 100.023C403.669 97.7774 398.957 96.6543 392.805 96.6543C386.262 96.6543 381.354 97.6797 378.083 99.7305C374.812 101.781 373.176 104.857 373.176 108.959C373.176 111.645 373.859 113.842 375.227 115.551C376.643 117.26 378.718 118.725 381.452 119.945C384.04 121.117 389.582 122.606 398.078 124.413C403.01 125.487 407.258 126.513 410.822 127.489C414.387 128.417 417.243 129.32 419.392 130.199C421.54 131.127 423.444 132.104 425.104 133.129C426.813 134.154 428.278 135.253 429.499 136.425C431.989 138.817 433.894 141.674 435.212 144.994C436.53 148.266 437.189 152.05 437.189 156.347ZM470.515 150.414C470.515 158.129 471.931 163.964 474.763 167.919C477.644 171.825 481.721 173.778 486.994 173.778C490.607 173.778 493.562 172.997 495.856 171.435C498.2 169.823 499.836 167.455 500.764 164.33L520.173 166.015C514.558 180.37 503.156 187.548 485.969 187.548C474.055 187.548 464.899 184.032 458.503 177.001C452.106 169.921 448.908 159.618 448.908 146.093C448.908 133.007 452.155 122.948 458.649 115.917C465.144 108.886 474.348 105.37 486.262 105.37C497.639 105.37 506.33 109.154 512.336 116.723C518.342 124.242 521.345 135.277 521.345 149.828V150.414H470.515ZM501.423 137.523C501.032 131.127 499.494 126.342 496.809 123.168C494.123 119.945 490.51 118.334 485.969 118.334C481.135 118.334 477.399 120.019 474.763 123.388C472.175 126.757 470.808 131.469 470.661 137.523H501.423ZM570.051 187.548C558.039 187.548 548.762 183.983 542.219 176.855C535.676 169.677 532.404 159.691 532.404 146.898C532.404 133.813 535.7 123.632 542.292 116.356C548.884 109.032 558.234 105.37 570.344 105.37C579.67 105.37 587.385 107.714 593.488 112.401C599.592 117.089 603.425 123.559 604.987 131.811L584.26 132.836C583.674 128.783 582.209 125.561 579.865 123.168C577.521 120.727 574.201 119.506 569.904 119.506C564.582 119.506 560.603 121.728 557.966 126.171C555.329 130.565 554.011 137.206 554.011 146.093C554.011 155.224 555.354 162.084 558.039 166.674C560.773 171.215 564.826 173.485 570.197 173.485C574.104 173.485 577.375 172.265 580.012 169.823C582.648 167.333 584.284 163.647 584.919 158.764L605.573 159.716C604.841 165.282 602.863 170.165 599.641 174.364C596.467 178.515 592.341 181.762 587.263 184.105C582.185 186.4 576.447 187.548 570.051 187.548ZM641.096 147.191V186.083H620.515V125.439C620.515 121.093 620.441 117.48 620.295 114.599C620.197 111.669 620.075 109.081 619.929 106.835H639.558C639.655 107.274 639.753 108.251 639.851 109.765C639.948 111.278 640.046 112.987 640.144 114.892C640.241 116.747 640.314 118.505 640.363 120.165C640.461 121.825 640.51 123.022 640.51 123.754H640.803C642.756 118.285 644.538 114.355 646.149 111.962C647.712 109.667 649.567 107.982 651.716 106.908C653.864 105.834 656.55 105.297 659.772 105.297C662.409 105.297 664.533 105.663 666.145 106.396V123.607C662.873 122.875 659.943 122.509 657.355 122.509C652.229 122.509 648.225 124.584 645.344 128.734C642.512 132.885 641.096 139.037 641.096 147.191ZM695.954 150.414C695.954 158.129 697.37 163.964 700.202 167.919C703.083 171.825 707.16 173.778 712.434 173.778C716.047 173.778 719.001 172.997 721.296 171.435C723.64 169.823 725.275 167.455 726.203 164.33L745.612 166.015C739.997 180.37 728.596 187.548 711.408 187.548C699.494 187.548 690.339 184.032 683.942 177.001C677.546 169.921 674.348 159.618 674.348 146.093C674.348 133.007 677.595 122.948 684.089 115.917C690.583 108.886 699.787 105.37 711.701 105.37C723.078 105.37 731.77 109.154 737.775 116.723C743.781 124.242 746.784 135.277 746.784 149.828V150.414H695.954ZM726.862 137.523C726.472 131.127 724.934 126.342 722.248 123.168C719.562 119.945 715.949 118.334 711.408 118.334C706.574 118.334 702.839 120.019 700.202 123.388C697.614 126.757 696.247 131.469 696.101 137.523H726.862ZM800.104 184.911C795.124 186.571 789.338 187.401 782.746 187.401C776.691 187.401 772.028 185.766 768.757 182.494C765.485 179.174 763.85 174.169 763.85 167.48V120.751H753.815V106.835H764.875L771.32 88.2315H784.211V106.835H799.226V120.751H784.211V161.913C784.211 165.771 784.943 168.627 786.408 170.482C787.873 172.289 790.144 173.192 793.22 173.192C794.685 173.192 796.979 172.851 800.104 172.167V184.911ZM830.72 187.548C823.054 187.548 817.072 185.473 812.775 181.322C808.479 177.123 806.33 171.239 806.33 163.671C806.33 155.468 808.991 149.242 814.313 144.994C819.685 140.746 827.448 138.524 837.604 138.329L854.67 138.036V134.008C854.67 128.832 853.767 124.999 851.96 122.509C850.153 119.97 847.199 118.7 843.098 118.7C839.289 118.7 836.481 119.579 834.675 121.337C832.917 123.046 831.818 125.902 831.379 129.906L809.919 128.881C812.604 113.207 823.957 105.37 843.977 105.37C853.986 105.37 861.701 107.836 867.121 112.768C872.541 117.699 875.251 124.706 875.251 133.788V162.646C875.251 167.089 875.739 170.165 876.716 171.874C877.741 173.534 879.426 174.364 881.77 174.364C883.332 174.364 884.846 174.218 886.311 173.925V185.058C883.771 185.692 881.599 186.156 879.792 186.449C877.985 186.791 875.764 186.962 873.127 186.962C867.951 186.962 864.118 185.692 861.628 183.153C859.187 180.614 857.722 176.879 857.233 171.947H856.794C853.913 177.123 850.3 181.029 845.954 183.666C841.608 186.254 836.53 187.548 830.72 187.548ZM854.67 149.389L844.123 149.535C839.289 149.779 835.896 150.292 833.942 151.073C831.94 151.952 830.402 153.271 829.328 155.028C828.303 156.786 827.79 159.13 827.79 162.06C827.79 165.819 828.645 168.627 830.354 170.482C832.111 172.289 834.431 173.192 837.312 173.192C840.534 173.192 843.488 172.314 846.174 170.556C848.811 168.798 850.886 166.381 852.399 163.305C853.913 160.18 854.67 156.884 854.67 153.417V149.389ZM916.486 147.191V186.083H895.905V125.439C895.905 121.093 895.832 117.48 895.686 114.599C895.588 111.669 895.466 109.081 895.319 106.835H914.948C915.046 107.274 915.144 108.251 915.241 109.765C915.339 111.278 915.437 112.987 915.534 114.892C915.632 116.747 915.705 118.505 915.754 120.165C915.852 121.825 915.9 123.022 915.9 123.754H916.193C918.146 118.285 919.929 114.355 921.54 111.962C923.103 109.667 924.958 107.982 927.106 106.908C929.255 105.834 931.94 105.297 935.163 105.297C937.8 105.297 939.924 105.663 941.535 106.396V123.607C938.264 122.875 935.334 122.509 932.746 122.509C927.619 122.509 923.615 124.584 920.734 128.734C917.902 132.885 916.486 139.037 916.486 147.191ZM966.877 163.744V186.083H945.71V163.744H966.877Z" fill="#E8E8E8"/>
<path d="M1020.49 82.8848V186.083H998.888V82.8848H1020.49ZM1065.1 159.716L1055.94 186.083H1034.34L1071.98 82.8848H1097.47L1134.97 186.083H1113.58L1104.43 159.716H1065.1ZM1084.73 98.7784C1084.24 100.731 1083.56 103.075 1082.68 105.81C1081.8 108.544 1081.16 110.473 1080.77 111.596L1069.93 143.456H1099.6L1088.46 110.937C1087.78 108.935 1087.14 106.908 1086.56 104.857C1085.97 102.807 1085.36 100.78 1084.73 98.7784Z" fill="url(#paint0_linear_114_365)"/>
<defs>
<linearGradient id="paint0_linear_114_365" x1="1063.5" y1="220.083" x2="1064.12" y2="48.083" gradientUnits="userSpaceOnUse">
<stop stop-color="#019EEA"/>
<stop offset="1" stop-color="#FF5E5C"/>
</linearGradient>
</defs>
</svg>
