<svg width="622" height="443" viewBox="0 0 622 443" fill="none" xmlns="http://www.w3.org/2000/svg">
<path d="M515.603 120.59V59.68C515.603 56.92 513.363 54.68 510.603 54.68C507.843 54.68 505.603 56.92 505.603 59.68V120.69C505.273 120.78 504.933 120.88 504.603 120.98C482.843 51.47 404.233 0 310.603 0C216.973 0 138.403 51.44 116.623 120.92C116.283 120.82 115.943 120.72 115.603 120.64V59.68C115.603 56.92 113.363 54.68 110.603 54.68C107.843 54.68 105.603 56.92 105.603 59.68V120.64C92.493 123.99 82.543 140.34 82.543 160C82.543 182.09 95.103 200 110.603 200C112.673 200 114.683 199.68 116.623 199.08C138.403 268.56 216.993 320 310.603 320C404.213 320 482.843 268.53 504.603 199.02C506.603 199.66 508.683 200 510.813 200C526.313 200 538.873 182.09 538.873 160C538.873 140.24 528.823 123.82 515.603 120.59ZM310.603 276.42C216.783 276.42 140.733 224.3 140.733 160C140.733 95.7 216.783 43.58 310.603 43.58C404.423 43.58 480.463 95.7 480.463 160C480.463 224.3 404.413 276.42 310.603 276.42Z" fill="#040C4A"/>
<path d="M222.603 229.68C250.217 229.68 272.603 198.34 272.603 159.68C272.603 121.02 250.217 89.68 222.603 89.68C194.989 89.68 172.603 121.02 172.603 159.68C172.603 198.34 194.989 229.68 222.603 229.68Z" fill="#040C4A"/>
<path d="M398.603 229.68C426.217 229.68 448.603 198.34 448.603 159.68C448.603 121.02 426.217 89.68 398.603 89.68C370.989 89.68 348.603 121.02 348.603 159.68C348.603 198.34 370.989 229.68 398.603 229.68Z" fill="#040C4A"/>
<path d="M71.8945 417.211C71.8945 425.297 68.8867 431.488 62.8711 435.785C56.8945 440.043 48.1055 442.172 36.5039 442.172C15.6055 442.172 3.4375 434.613 0 419.496L16.6992 416.742C17.832 421.117 20.0391 424.301 23.3203 426.293C26.6016 428.246 31.1523 429.223 36.9727 429.223C43.0273 429.223 47.5586 428.305 50.5664 426.469C53.5742 424.633 55.0781 421.879 55.0781 418.207C55.0781 415.863 54.3945 413.93 53.0273 412.406C51.6602 410.883 49.707 409.613 47.168 408.598C45.918 408.09 44.082 407.543 41.6602 406.957C39.2383 406.332 36.2305 405.648 32.6367 404.906C28.4961 403.93 25.2539 403.109 22.9102 402.445C20.5664 401.742 18.6914 401.078 17.2852 400.453C15.8789 399.789 14.5117 399.066 13.1836 398.285C10.2539 396.527 7.96875 394.184 6.32812 391.254C4.6875 388.324 3.86719 384.672 3.86719 380.297C3.86719 372.836 6.66016 367.133 12.2461 363.188C17.8711 359.203 26.0352 357.211 36.7383 357.211C46.9727 357.211 54.6484 358.812 59.7656 362.016C64.9219 365.219 68.2422 370.512 69.7266 377.895L52.9688 380.18C52.1094 376.625 50.3516 373.949 47.6953 372.152C45.0781 370.355 41.3086 369.457 36.3867 369.457C31.1523 369.457 27.2266 370.277 24.6094 371.918C21.9922 373.559 20.6836 376.02 20.6836 379.301C20.6836 381.449 21.2305 383.207 22.3242 384.574C23.457 385.941 25.1172 387.113 27.3047 388.09C29.375 389.027 33.8086 390.219 40.6055 391.664C44.5508 392.523 47.9492 393.344 50.8008 394.125C53.6523 394.867 55.9375 395.59 57.6562 396.293C59.375 397.035 60.8984 397.816 62.2266 398.637C63.5938 399.457 64.7656 400.336 65.7422 401.273C67.7344 403.188 69.2578 405.473 70.3125 408.129C71.3672 410.746 71.8945 413.773 71.8945 417.211Z" fill="#040C4A"/>
<path d="M98.5547 412.465C98.5547 418.637 99.6875 423.305 101.953 426.469C104.258 429.594 107.52 431.156 111.738 431.156C114.629 431.156 116.992 430.531 118.828 429.281C120.703 427.992 122.012 426.098 122.754 423.598L138.281 424.945C133.789 436.43 124.668 442.172 110.918 442.172C101.387 442.172 94.0625 439.359 88.9453 433.734C83.8281 428.07 81.2695 419.828 81.2695 409.008C81.2695 398.539 83.8672 390.492 89.0625 384.867C94.2578 379.242 101.621 376.43 111.152 376.43C120.254 376.43 127.207 379.457 132.012 385.512C136.816 391.527 139.219 400.355 139.219 411.996V412.465H98.5547ZM123.281 402.152C122.969 397.035 121.738 393.207 119.59 390.668C117.441 388.09 114.551 386.801 110.918 386.801C107.051 386.801 104.062 388.148 101.953 390.844C99.8828 393.539 98.7891 397.309 98.6719 402.152H123.281Z" fill="#040C4A"/>
<path d="M178.184 442.172C168.574 442.172 161.152 439.32 155.918 433.617C150.684 427.875 148.066 419.887 148.066 409.652C148.066 399.184 150.703 391.039 155.977 385.219C161.25 379.359 168.73 376.43 178.418 376.43C185.879 376.43 192.051 378.305 196.934 382.055C201.816 385.805 204.883 390.98 206.133 397.582L189.551 398.402C189.082 395.16 187.91 392.582 186.035 390.668C184.16 388.715 181.504 387.738 178.066 387.738C173.809 387.738 170.625 389.516 168.516 393.07C166.406 396.586 165.352 401.898 165.352 409.008C165.352 416.312 166.426 421.801 168.574 425.473C170.762 429.105 174.004 430.922 178.301 430.922C181.426 430.922 184.043 429.945 186.152 427.992C188.262 426 189.57 423.051 190.078 419.145L206.602 419.906C206.016 424.359 204.434 428.266 201.855 431.625C199.316 434.945 196.016 437.543 191.953 439.418C187.891 441.254 183.301 442.172 178.184 442.172Z" fill="#040C4A"/>
<path d="M235.02 409.887V441H218.555V392.484C218.555 389.008 218.496 386.117 218.379 383.812C218.301 381.469 218.203 379.398 218.086 377.602H233.789C233.867 377.953 233.945 378.734 234.023 379.945C234.102 381.156 234.18 382.523 234.258 384.047C234.336 385.531 234.395 386.938 234.434 388.266C234.512 389.594 234.551 390.551 234.551 391.137H234.785C236.348 386.762 237.773 383.617 239.062 381.703C240.312 379.867 241.797 378.52 243.516 377.66C245.234 376.801 247.383 376.371 249.961 376.371C252.07 376.371 253.77 376.664 255.059 377.25V391.02C252.441 390.434 250.098 390.141 248.027 390.141C243.926 390.141 240.723 391.801 238.418 395.121C236.152 398.441 235.02 403.363 235.02 409.887Z" fill="#040C4A"/>
<path d="M278.906 412.465C278.906 418.637 280.039 423.305 282.305 426.469C284.609 429.594 287.871 431.156 292.09 431.156C294.98 431.156 297.344 430.531 299.18 429.281C301.055 427.992 302.363 426.098 303.105 423.598L318.633 424.945C314.141 436.43 305.02 442.172 291.27 442.172C281.738 442.172 274.414 439.359 269.297 433.734C264.18 428.07 261.621 419.828 261.621 409.008C261.621 398.539 264.219 390.492 269.414 384.867C274.609 379.242 281.973 376.43 291.504 376.43C300.605 376.43 307.559 379.457 312.363 385.512C317.168 391.527 319.57 400.355 319.57 411.996V412.465H278.906ZM303.633 402.152C303.32 397.035 302.09 393.207 299.941 390.668C297.793 388.09 294.902 386.801 291.27 386.801C287.402 386.801 284.414 388.148 282.305 390.844C280.234 393.539 279.141 397.309 279.023 402.152H303.633Z" fill="#040C4A"/>
<path d="M362.227 440.062C358.242 441.391 353.613 442.055 348.34 442.055C343.496 442.055 339.766 440.746 337.148 438.129C334.531 435.473 333.223 431.469 333.223 426.117V388.734H325.195V377.602H334.043L339.199 362.719H349.512V377.602H361.523V388.734H349.512V421.664C349.512 424.75 350.098 427.035 351.27 428.52C352.441 429.965 354.258 430.688 356.719 430.688C357.891 430.688 359.727 430.414 362.227 429.867V440.062Z" fill="#040C4A"/>
<path d="M386.719 442.172C380.586 442.172 375.801 440.512 372.363 437.191C368.926 433.832 367.207 429.125 367.207 423.07C367.207 416.508 369.336 411.527 373.594 408.129C377.891 404.73 384.102 402.953 392.227 402.797L405.879 402.562V399.34C405.879 395.199 405.156 392.133 403.711 390.141C402.266 388.109 399.902 387.094 396.621 387.094C393.574 387.094 391.328 387.797 389.883 389.203C388.477 390.57 387.598 392.855 387.246 396.059L370.078 395.238C372.227 382.699 381.309 376.43 397.324 376.43C405.332 376.43 411.504 378.402 415.84 382.348C420.176 386.293 422.344 391.898 422.344 399.164V422.25C422.344 425.805 422.734 428.266 423.516 429.633C424.336 430.961 425.684 431.625 427.559 431.625C428.809 431.625 430.02 431.508 431.191 431.273V440.18C429.16 440.688 427.422 441.059 425.977 441.293C424.531 441.566 422.754 441.703 420.645 441.703C416.504 441.703 413.438 440.688 411.445 438.656C409.492 436.625 408.32 433.637 407.93 429.691H407.578C405.273 433.832 402.383 436.957 398.906 439.066C395.43 441.137 391.367 442.172 386.719 442.172ZM405.879 411.645L397.441 411.762C393.574 411.957 390.859 412.367 389.297 412.992C387.695 413.695 386.465 414.75 385.605 416.156C384.785 417.562 384.375 419.438 384.375 421.781C384.375 424.789 385.059 427.035 386.426 428.52C387.832 429.965 389.688 430.688 391.992 430.688C394.57 430.688 396.934 429.984 399.082 428.578C401.191 427.172 402.852 425.238 404.062 422.777C405.273 420.277 405.879 417.641 405.879 414.867V411.645Z" fill="#040C4A"/>
<path d="M455.332 409.887V441H438.867V392.484C438.867 389.008 438.809 386.117 438.691 383.812C438.613 381.469 438.516 379.398 438.398 377.602H454.102C454.18 377.953 454.258 378.734 454.336 379.945C454.414 381.156 454.492 382.523 454.57 384.047C454.648 385.531 454.707 386.938 454.746 388.266C454.824 389.594 454.863 390.551 454.863 391.137H455.098C456.66 386.762 458.086 383.617 459.375 381.703C460.625 379.867 462.109 378.52 463.828 377.66C465.547 376.801 467.695 376.371 470.273 376.371C472.383 376.371 474.082 376.664 475.371 377.25V391.02C472.754 390.434 470.41 390.141 468.34 390.141C464.238 390.141 461.035 391.801 458.73 395.121C456.465 398.441 455.332 403.363 455.332 409.887Z" fill="#040C4A"/>
<path d="M495.645 423.129V441H478.711V423.129H495.645Z" fill="#040C4A"/>
<path d="M529.738 358.441V441H512.453V358.441H529.738Z" fill="url(#paint0_linear_306_116)"/>
<path d="M565.422 419.906L558.098 441H540.812L570.93 358.441H591.32L621.32 441H604.211L596.887 419.906H565.422ZM581.125 371.156C580.734 372.719 580.188 374.594 579.484 376.781C578.781 378.969 578.273 380.512 577.961 381.41L569.289 406.898H593.02L584.113 380.883C583.566 379.281 583.059 377.66 582.59 376.02C582.121 374.379 581.633 372.758 581.125 371.156Z" fill="url(#paint1_linear_306_116)"/>
<defs>
<linearGradient id="paint0_linear_306_116" x1="564.043" y1="468" x2="564.543" y2="330" gradientUnits="userSpaceOnUse">
<stop stop-color="#019EEA"/>
<stop offset="1" stop-color="#FF5E5C"/>
</linearGradient>
<linearGradient id="paint1_linear_306_116" x1="564.043" y1="468" x2="564.543" y2="330" gradientUnits="userSpaceOnUse">
<stop stop-color="#019EEA"/>
<stop offset="1" stop-color="#FF5E5C"/>
</linearGradient>
</defs>
</svg>
